<?xml version="1.0" encoding="UTF-8" standalone="no"?>
<svg
   viewBox="0 0 256 256"
   version="1.1"
   id="svg643"
   sodipodi:docname="pluginIcon.svg"
   inkscape:version="1.2.2 (b0a8486541, 2022-12-01)"
   xmlns:inkscape="http://www.inkscape.org/namespaces/inkscape"
   xmlns:sodipodi="http://sodipodi.sourceforge.net/DTD/sodipodi-0.dtd"
   xmlns="http://www.w3.org/2000/svg"
   xmlns:svg="http://www.w3.org/2000/svg">
  <defs
     id="defs647" />
  <sodipodi:namedview
     id="namedview645"
     pagecolor="#505050"
     bordercolor="#eeeeee"
     borderopacity="1"
     inkscape:showpageshadow="0"
     inkscape:pageopacity="0"
     inkscape:pagecheckerboard="0"
     inkscape:deskcolor="#505050"
     showgrid="false"
     inkscape:zoom="2.6074563"
     inkscape:cx="188.8814"
     inkscape:cy="128.47771"
     inkscape:window-width="1854"
     inkscape:window-height="1011"
     inkscape:window-x="0"
     inkscape:window-y="0"
     inkscape:window-maximized="1"
     inkscape:current-layer="svg643" />
  <path
     d="m 22.3302,54.235415 c -4.112174,4.217647 3.947141,17.282551 22.822942,37.002127 25.413835,26.551688 43.231191,37.946408 60.955488,38.986248 12.22981,0.71721 18.69587,-1.57836 25.62849,-9.09914 7.33467,-7.95757 6.73037,-13.5079 -2.56979,-23.597245 C 112.89855,79.878808 58.914161,55.308751 33.187631,53.845789 27.727894,53.535577 22.842671,53.710536 22.3302,54.235415 m 140.23335,42.724924 c -5.93126,1.785583 -11.77442,6.111191 -13.33045,9.869711 -0.82888,2.00025 -1.59325,6.409 -1.69748,9.79775 -0.35737,11.58457 9.76424,19.5955 23.38629,18.50975 11.28056,-0.89961 19.23316,-8.45018 19.23316,-18.26158 0,-13.80693 -14.09357,-23.980653 -27.59152,-19.915631 m -0.30649,9.177321 c -5.52922,5.52922 -3.70766,9.44039 4.39509,9.44039 4.20275,0 7.78881,-4.47078 7.15721,-8.9242 -0.61545,-4.34421 -7.42027,-4.64822 -11.5523,-0.51619 m 1.02742,1.42822 c -0.40451,1.05348 -0.39956,2.24966 0.008,2.65914 1.07333,1.0721 4.62961,-2.16156 3.81934,-3.47314 -1.05968,-1.71361 -3.01774,-1.29669 -3.82802,0.814"
     stroke="none"
     fill="#96c8e1"
     fill-rule="evenodd"
     id="path639"
     sodipodi:nodetypes="cccccccccccsccscccccc"
     style="stroke-width:1.24085" />
  <path
     d="m 20.725781,55.164812 c -1.05224,4.195311 1.120487,10.536051 5.890313,17.19569 5.828269,8.137489 29.056968,32.752218 35.838209,37.978678 5.637179,4.34546 5.994544,4.96464 6.044178,10.46533 0.07445,8.13252 4.179181,18.29011 10.119123,25.03784 5.063912,5.75259 26.766366,22.23727 34.366566,26.10499 6.9016,3.51161 22.49412,6.91402 31.68881,6.91402 23.97321,0 44.63583,-10.8897 53.03514,-27.95014 3.71138,-7.5394 3.89006,-8.54944 3.32796,-18.85718 -0.7383,-13.56869 -3.92728,-22.19507 -11.83398,-32.00895 C 168.07664,73.822223 133.31052,62.159479 105.50681,71.965912 l -7.095171,2.502793 -8.937842,-4.349177 C 84.558794,67.727171 72.395989,62.962309 62.445618,59.53012 47.525645,54.383077 42.355026,53.173249 32.943184,52.626034 L 21.529852,51.96342 20.725781,55.164812 M 22.3302,54.235415 c -4.112174,4.217647 3.947141,17.282551 22.822942,37.002127 25.413835,26.551688 43.231191,37.946408 60.955488,38.986248 12.22981,0.71721 18.69587,-1.57836 25.62849,-9.09914 7.33467,-7.95757 6.73037,-13.5079 -2.56979,-23.597245 C 112.89855,79.878808 58.914161,55.308751 33.187631,53.845789 27.727894,53.535577 22.842671,53.710536 22.3302,54.235415 m 140.23335,42.724924 c -5.93126,1.785583 -11.77442,6.111191 -13.33045,9.869711 -0.82888,2.00025 -1.59325,6.409 -1.69748,9.79775 -0.35737,11.58457 9.76424,19.5955 23.38629,18.50975 11.28056,-0.89961 19.23316,-8.45018 19.23316,-18.26158 0,-13.80693 -14.09357,-23.980653 -27.59152,-19.915631"
     stroke="none"
     fill="#96495d"
     fill-rule="evenodd"
     id="path641"
     sodipodi:nodetypes="ccccscscccccccccccccccccccccsc"
     style="stroke-width:1.24085" />
  <path
     d="m 214.41616,100.61588 c -1.19866,1.32523 -1.98412,2.93709 -1.7434,3.58233 0.24073,0.64525 6.30104,6.04294 13.46694,11.99654 7.16591,5.95235 13.15425,10.93436 13.30812,11.06961 0.15262,0.13526 -5.82083,5.23887 -13.27586,11.34137 -7.45502,6.10249 -13.58357,11.70741 -13.61831,12.4544 -0.0633,1.35377 3.8367,5.46594 5.18426,5.46594 0.88225,0 34.07124,-27.58656 34.65568,-28.80631 0.45167,-0.94305 -33.30439,-29.513611 -34.87159,-29.513611 -0.50875,0 -1.90594,1.084505 -3.10584,2.409731"
     style="fill:#5f5f5f;fill-opacity:1;fill-rule:evenodd;stroke:none;stroke-width:1.24085"
     id="path692" />
  <path
     d="m 20.727023,107.66763 c -9.526,7.93399 -17.0678831,14.77355 -16.7613933,15.2004 1.0981512,1.52253 34.0948173,28.69465 34.8467723,28.69465 0.421889,0 2.00273,-1.3153 3.512844,-2.92344 l 2.746,-2.9222 -12.693889,-10.41694 c -6.98226,-5.72899 -13.424749,-10.97406 -14.315678,-11.65653 -1.223478,-0.93809 1.872441,-4.09232 12.678998,-12.91476 L 45.040224,99.05489 42.310356,96.148824 c -1.502669,-1.598213 -3.076065,-2.906068 -3.497954,-2.906068 -0.421889,0 -8.56062,6.490878 -18.085379,14.424874"
     style="fill:#5f5f5f;fill-opacity:1;fill-rule:evenodd;stroke:none;stroke-width:1.24085"
     id="path1433" />
  <ellipse
     style="fill:#ffffff;fill-opacity:1;stroke-width:1.24085"
     id="path2542"
     cx="168.7226"
     cy="116.57009"
     rx="24.575233"
     ry="23.192425" />
  <path
     d="m 162.25706,106.13766 c -5.52922,5.52922 -3.70766,9.44039 4.39509,9.44039 4.20275,0 7.78881,-4.47078 7.15721,-8.9242 -0.61545,-4.34421 -7.42027,-4.64822 -11.5523,-0.51619 m 1.02742,1.42822 c -0.40451,1.05348 -0.39956,2.24966 0.008,2.65914 1.07333,1.0721 4.62961,-2.16156 3.81934,-3.47314 -1.05968,-1.71361 -3.01774,-1.29669 -3.82802,0.814"
     style="fill:#000000;fill-opacity:1;fill-rule:evenodd;stroke:none;stroke-width:1.24085"
     id="path1624" />
</svg>
