<?xml version="1.0" encoding="UTF-8" standalone="no"?>
<svg
        viewBox="0 0 256 256"
        version="1.1"
        id="svg643"
        sodipodi:docname="pluginIcon.svg"
        inkscape:version="1.2.2 (b0a8486541, 2022-12-01)"
        xmlns:inkscape="http://www.inkscape.org/namespaces/inkscape"
        xmlns:sodipodi="http://sodipodi.sourceforge.net/DTD/sodipodi-0.dtd"
        xmlns="http://www.w3.org/2000/svg"
>
    <defs
            id="defs647"/>
    <sodipodi:namedview
            id="namedview645"
            pagecolor="#505050"
            bordercolor="#eeeeee"
            borderopacity="1"
            inkscape:showpageshadow="0"
            inkscape:pageopacity="0"
            inkscape:pagecheckerboard="0"
            inkscape:deskcolor="#505050"
            showgrid="false"
            inkscape:zoom="5.2149125"
            inkscape:cx="128.47771"
            inkscape:cy="119.65685"
            inkscape:window-width="1854"
            inkscape:window-height="1011"
            inkscape:window-x="0"
            inkscape:window-y="0"
            inkscape:window-maximized="1"
            inkscape:current-layer="svg643"/>
    <path
            d="m 48.75,73.564 c -3.314,3.399 3.181,13.928 18.393,29.82 20.481,21.398 34.84,30.581 49.124,31.419 9.856,0.578 15.067,-1.272 20.654,-7.333 5.911,-6.413 5.424,-10.886 -2.071,-19.017 C 121.739,94.23 78.233,74.429 57.5,73.25 53.1,73 49.163,73.141 48.75,73.564 m 113.014,34.432 c -4.78,1.439 -9.489,4.925 -10.743,7.954 -0.668,1.612 -1.284,5.165 -1.368,7.896 -0.288,9.336 7.869,15.792 18.847,14.917 9.091,-0.725 15.5,-6.81 15.5,-14.717 0,-11.127 -11.358,-19.326 -22.236,-16.05 m -0.247,7.396 c -4.456,4.456 -2.988,7.608 3.542,7.608 3.387,0 6.277,-3.603 5.768,-7.192 -0.496,-3.501 -5.98,-3.746 -9.31,-0.416 m 0.828,1.151 c -0.326,0.849 -0.322,1.813 0.007,2.143 0.865,0.864 3.731,-1.742 3.078,-2.799 -0.854,-1.381 -2.432,-1.045 -3.085,0.656"
            stroke="none"
            fill="#96c8e1"
            fill-rule="evenodd"
            id="path639"
            sodipodi:nodetypes="cccccccccccsccscccccc"/>
    <path
            d="m 47.457,74.313 c -0.848,3.381 0.903,8.491 4.747,13.858 4.697,6.558 23.417,26.395 28.882,30.607 4.543,3.502 4.831,4.001 4.871,8.434 0.06,6.554 3.368,14.74 8.155,20.178 4.081,4.636 21.571,17.921 27.696,21.038 5.562,2.83 18.128,5.572 25.538,5.572 19.32,0 35.972,-8.776 42.741,-22.525 2.991,-6.076 3.135,-6.89 2.682,-15.197 -0.595,-10.935 -3.165,-17.887 -9.537,-25.796 C 166.207,89.349 138.189,79.95 115.782,87.853 l -5.718,2.017 -7.203,-3.505 C 98.9,84.437 89.098,80.597 81.079,77.831 69.055,73.683 64.888,72.708 57.303,72.267 l -9.198,-0.534 -0.648,2.58 m 1.293,-0.749 c -3.314,3.399 3.181,13.928 18.393,29.82 20.481,21.398 34.84,30.581 49.124,31.419 9.856,0.578 15.067,-1.272 20.654,-7.333 5.911,-6.413 5.424,-10.886 -2.071,-19.017 C 121.739,94.23 78.233,74.429 57.5,73.25 53.1,73 49.163,73.141 48.75,73.564 m 113.014,34.432 c -4.78,1.439 -9.489,4.925 -10.743,7.954 -0.668,1.612 -1.284,5.165 -1.368,7.896 -0.288,9.336 7.869,15.792 18.847,14.917 9.091,-0.725 15.5,-6.81 15.5,-14.717 0,-11.127 -11.358,-19.326 -22.236,-16.05"
            stroke="none"
            fill="#96495d"
            fill-rule="evenodd"
            id="path641"
            sodipodi:nodetypes="ccccscscccccccccccccccccccccsc"/>
    <path
            d="m 203.552,110.942 c -0.966,1.068 -1.599,2.367 -1.405,2.887 0.194,0.52 5.078,4.87 10.853,9.668 5.775,4.797 10.601,8.812 10.725,8.921 0.123,0.109 -4.691,4.222 -10.699,9.14 -6.008,4.918 -10.947,9.435 -10.975,10.037 -0.051,1.091 3.092,4.405 4.178,4.405 0.711,0 27.458,-22.232 27.929,-23.215 0.364,-0.76 -26.84,-23.785 -28.103,-23.785 -0.41,0 -1.536,0.874 -2.503,1.942"
            style="fill:#5f5f5f;fill-rule:evenodd;stroke:none;fill-opacity:1"
            id="path692"/>
    <path
            d="m 47.458,116.625 c -7.677,6.394 -13.755,11.906 -13.508,12.25 0.885,1.227 27.477,23.125 28.083,23.125 0.34,0 1.614,-1.06 2.831,-2.356 l 2.213,-2.355 -10.23,-8.395 C 51.22,134.277 46.028,130.05 45.31,129.5 c -0.986,-0.756 1.509,-3.298 10.218,-10.408 l 11.524,-9.408 -2.2,-2.342 C 63.641,106.054 62.373,105 62.033,105 c -0.34,0 -6.899,5.231 -14.575,11.625"
            style="fill:#5f5f5f;fill-rule:evenodd;stroke:none;fill-opacity:1"
            id="path1433"/>
    <ellipse
            style="fill:#ffffff;fill-opacity:1"
            id="path2542"
            cx="166.72757"
            cy="123.79949"
            rx="19.80517"
            ry="18.690765"/>
    <path
            d="m 161.517,115.392 c -4.456,4.456 -2.988,7.608 3.542,7.608 3.387,0 6.277,-3.603 5.768,-7.192 -0.496,-3.501 -5.98,-3.746 -9.31,-0.416 m 0.828,1.151 c -0.326,0.849 -0.322,1.813 0.007,2.143 0.865,0.864 3.731,-1.742 3.078,-2.799 -0.854,-1.381 -2.432,-1.045 -3.085,0.656"
            style="fill:#000000;fill-rule:evenodd;stroke:none;fill-opacity:1"
            id="path1624"/>
</svg>
